<svg xmlns="http://www.w3.org/2000/svg" viewBox="0 0 100 100">
  <defs>
    <linearGradient id="bgGradient" x1="0%" y1="0%" x2="100%" y2="100%">
      <stop offset="0%" style="stop-color:#FF6B9D;stop-opacity:1" />
      <stop offset="100%" style="stop-color:#C44BD4;stop-opacity:1" />
    </linearGradient>
  </defs>
  <rect width="100" height="100" rx="20" fill="url(#bgGradient)"/>
  <path d="M30 35c0-8 6-12 14-10 2 1 4 3 6 5 2-2 4-4 6-5 8-2 14 2 14 10 0 8-10 18-20 25-10-7-20-17-20-25z" fill="white"/>
  <path d="M35 50c-3-2-5-4-5-7 0-3 2-5 5-4 1 0 2 1 3 2l2-2c3-1 5 1 5 4 0 3-2 5-5 7l-5-7z" fill="url(#bgGradient)" opacity="0.3"/>
</svg> 